<svg width="372" height="94" viewBox="0 0 372 94" fill="none" xmlns="http://www.w3.org/2000/svg">
<rect x="0.520231" y="1.90793" width="40.8584" height="40.8584" stroke="#F2EADD" stroke-width="1.04046"/>
<path d="M89.0176 43.3037H47.1016V1.3877H89.0176V43.3037ZM67.9814 6.35156C59.7543 6.35156 52.5557 12.6361 52.5557 21.2822C52.5558 29.9283 59.7543 36.1367 67.9814 36.1367C69.3144 36.1367 70.6475 35.9844 71.9043 35.6416C73.6943 36.9365 75.4844 38.3074 77.3506 38.3076C78.6837 38.3076 80.4745 37.965 81.6934 35.2607V34.9561C80.3223 36.4794 78.913 36.5937 77.5801 36.5938C76.2089 36.5938 74.8751 35.9464 73.5039 35.1465C79.2172 33.0897 83.4833 27.9096 83.4834 21.2822C83.4834 12.6361 76.2085 6.35168 67.9814 6.35156ZM62.9912 34.4229C65.6193 32.8231 68.3621 33.204 71.1045 35.1084C70.1143 35.375 69.0859 35.5273 67.9814 35.5273C66.1532 35.5273 64.4767 35.1465 62.9912 34.4229ZM67.9814 6.96094C74.9516 6.96107 80.0557 12.8266 80.0557 21.2441C80.0556 27.7572 77.0843 32.6708 72.5518 34.6133C69.0095 32.366 65.5432 32.0233 62.7246 34.2705C58.6112 32.1375 55.9835 27.3763 55.9834 21.2441C55.9834 12.8265 61.0112 6.96094 67.9814 6.96094Z" fill="url(#paint0_linear_31_680)"/>
<rect x="0.520231" y="49.009" width="40.8584" height="40.8584" stroke="#F2EADD" stroke-width="1.04046"/>
<path d="M23.5104 85.6201C14.634 85.6201 6.86719 78.9217 6.86719 69.5933C6.86719 60.2649 14.634 53.4844 23.5104 53.4844C28.2362 53.4844 32.058 55.498 34.0305 56.9363V60.5526H33.7017C31.8525 55.087 26.3869 54.1419 23.5104 54.1419C15.9901 54.1419 10.5657 60.4704 10.5657 69.5522C10.5657 78.7162 15.9901 84.9626 23.5104 84.9626C27.4554 84.9626 32.5922 83.2777 33.7839 77.6889L34.0716 77.6478L34.8524 81.1408C33.0031 83.2366 28.3184 85.6201 23.5104 85.6201Z" fill="#F2EADD"/>
<rect x="47.6218" y="49.009" width="40.8584" height="40.8584" stroke="#F2EADD" stroke-width="1.04046"/>
<path d="M123.184 42.7575C112.957 42.7575 104.009 35.0403 104.009 24.293C104.009 13.5457 112.957 5.73378 123.184 5.73378C128.629 5.73378 133.032 8.05368 135.304 9.71075V13.8771H134.925C132.795 7.58023 126.498 6.4913 123.184 6.4913C114.52 6.4913 108.27 13.7824 108.27 24.2456C108.27 34.8036 114.52 42 123.184 42C127.729 42 133.647 40.0589 135.02 33.6199L135.352 33.5726L136.251 37.5969C134.121 40.0115 128.723 42.7575 123.184 42.7575ZM152.537 42.7575C146.145 42.7575 139.564 37.739 139.564 30.1638C139.564 22.5886 146.145 17.57 152.537 17.57C158.881 17.57 165.414 22.5886 165.414 30.1638C165.414 37.739 158.881 42.7575 152.537 42.7575ZM143.825 30.1638C143.825 38.5912 147.85 42 152.537 42C157.129 42 161.106 38.5912 161.106 30.1638C161.106 21.7364 157.129 18.3275 152.537 18.3275C147.85 18.3275 143.825 21.7364 143.825 30.1638ZM167.814 41.6212C170.134 41.6212 171.602 40.3429 171.602 36.9814V23.2988C171.602 19.9373 170.371 18.943 167.814 18.943V18.5643L175.105 17.57C175.626 17.4753 175.863 17.7594 175.863 18.2328V22.6359C178.04 19.0851 181.213 17.57 184.621 17.57C188.267 17.57 191.628 19.6058 192.765 23.2514C195.085 19.2271 198.351 17.57 201.902 17.57C206.353 17.57 210.424 20.6474 210.424 25.9501V36.9814C210.424 40.3429 211.892 41.6212 214.212 41.6212V42H202.376V41.6212C204.696 41.6212 206.163 40.3429 206.163 36.9814V25.9501C206.163 20.5054 203.654 18.3275 200.861 18.3275C197.689 18.3275 193.948 21.3103 193.143 25.9501V36.9814C193.143 40.3429 194.611 41.6212 196.931 41.6212V42H185.095V41.6212C187.415 41.6212 188.882 40.3429 188.882 36.9814V25.9501C188.882 20.5054 186.373 18.3275 183.58 18.3275C180.408 18.3275 176.667 21.3103 175.863 25.9501V36.9814C175.863 40.3429 177.33 41.6212 179.65 41.6212V42H167.814V41.6212ZM215.159 53.4575C217.479 53.4575 218.946 52.1792 218.946 48.8177V23.2988C218.946 19.9373 217.715 18.943 215.159 18.943V18.5643L218.946 18.0908L222.45 17.57C222.971 17.4753 223.207 17.7594 223.207 18.2328V22.6359C225.527 18.943 229.126 17.57 232.44 17.57C238.784 17.57 244.797 22.5886 244.797 30.1638C244.797 37.739 238.263 42.7575 231.919 42.7575C227.658 42.7575 225.007 40.8637 223.207 38.4491V48.8177C223.207 52.1792 224.675 53.4575 226.995 53.4575V53.8362H215.159V53.4575ZM223.207 35.135C223.728 38.3071 227.042 42 231.446 42C236.133 42 240.488 38.5912 240.536 30.1638C240.583 21.7364 236.085 18.3275 231.872 18.3275C227.184 18.3275 223.586 22.8726 223.207 25.9501V35.135ZM261.513 42.7575C255.122 42.7575 248.541 37.739 248.541 30.1638C248.541 22.5886 255.122 17.57 261.513 17.57C267.857 17.57 274.391 22.5886 274.391 30.1638C274.391 37.739 267.857 42.7575 261.513 42.7575ZM252.802 30.1638C252.802 38.5912 256.826 42 261.513 42C266.106 42 270.083 38.5912 270.083 30.1638C270.083 21.7364 266.106 18.3275 261.513 18.3275C256.826 18.3275 252.802 21.7364 252.802 30.1638ZM288.638 42.7575C284.187 42.7575 280.116 39.6801 280.116 34.3775V23.2988C280.116 19.9373 278.885 18.943 276.328 18.943V18.5643L283.619 17.57C284.14 17.4753 284.377 17.7594 284.377 18.2328V34.3775C284.377 39.8221 286.886 42 289.679 42C292.852 42 296.592 39.0173 297.397 34.3775V23.2988C297.397 19.9373 296.166 18.943 293.609 18.943V18.5643L300.9 17.57C301.421 17.4753 301.658 17.7594 301.658 18.2328V36.2713C301.658 40.7217 302.557 41.2898 305.445 40.627V41.0058C303.883 41.6212 302.32 42 300.995 42C299.101 42 297.397 40.9111 297.397 37.6916C295.219 41.2425 292.047 42.7575 288.638 42.7575ZM307.814 41.6212C310.134 41.6212 311.602 40.3429 311.602 36.9814V23.2988C311.602 19.9373 310.371 18.943 307.814 18.943V18.5643L315.105 17.57C315.626 17.4753 315.863 17.7594 315.863 18.2328V22.6359C318.041 19.0851 321.213 17.57 324.622 17.57C329.072 17.57 333.144 20.6474 333.144 25.9501V36.9814C333.144 40.3429 334.612 41.6212 336.931 41.6212V42H325.095V41.6212C327.415 41.6212 328.883 40.3429 328.883 36.9814V25.9501C328.883 20.5054 326.374 18.3275 323.58 18.3275C320.408 18.3275 316.668 21.3103 315.863 25.9501V36.9814C315.863 40.3429 317.331 41.6212 319.651 41.6212V42H307.814V41.6212ZM352.178 42.7575C345.834 42.7575 339.301 37.739 339.301 30.1638C339.301 22.5886 345.313 17.57 351.658 17.57C354.972 17.57 358.57 18.943 360.89 22.6359V12.22C360.89 8.85854 359.659 7.8643 357.102 7.8643V7.48554L364.393 6.4913C364.914 6.39661 365.151 6.68068 365.151 7.15413V36.9814C365.151 40.3429 366.619 41.6212 368.939 41.6212V42H364.677C362.642 42 360.89 40.9111 360.89 38.4491C359.091 40.8637 356.439 42.7575 352.178 42.7575ZM343.562 30.1638C343.609 38.5912 347.965 42 352.652 42C357.055 42 360.369 38.3071 360.89 35.135V25.9501C360.511 22.8726 356.913 18.3275 352.226 18.3275C348.012 18.3275 343.514 21.7364 343.562 30.1638Z" fill="#F2EADD"/>
<path d="M134.767 93.2796C132.382 93.2796 130.095 91.5274 127.807 89.8726C126.201 90.3106 124.498 90.5053 122.794 90.5053C112.281 90.5053 103.082 82.5719 103.082 71.5235C103.082 60.4751 112.281 52.4443 122.794 52.4443C133.307 52.4443 142.603 60.4751 142.603 71.5235C142.603 79.9923 137.152 86.6116 129.851 89.2398C131.604 90.2619 133.307 91.0894 135.059 91.0894C136.763 91.0894 138.564 90.9433 140.316 88.9965V89.3859C138.758 92.8415 136.471 93.2796 134.767 93.2796ZM107.463 71.4748C107.463 79.3109 110.821 85.3948 116.077 88.1204C119.679 85.2488 124.108 85.6868 128.635 88.5584C134.427 86.0762 138.223 79.7976 138.223 71.4748C138.223 60.7184 131.701 53.223 122.794 53.223C113.887 53.223 107.463 60.7184 107.463 71.4748ZM116.418 88.3151C118.316 89.2398 120.458 89.7266 122.794 89.7266C124.206 89.7266 125.52 89.5319 126.785 89.1912C123.281 86.7576 119.776 86.2709 116.418 88.3151ZM159.132 90.5053C154.557 90.5053 150.371 87.3417 150.371 81.8905V70.5014C150.371 67.0457 149.106 66.0236 146.478 66.0236V65.6342L153.973 64.6121C154.508 64.5148 154.752 64.8068 154.752 65.2935V81.8905C154.752 87.4877 157.331 89.7266 160.203 89.7266C163.464 89.7266 167.309 86.6603 168.136 81.8905V70.5014C168.136 67.0457 166.871 66.0236 164.243 66.0236V65.6342L171.738 64.6121C172.274 64.5148 172.517 64.8068 172.517 65.2935V83.8373C172.517 88.4124 173.442 88.9965 176.411 88.3151V88.7045C174.804 89.3372 173.198 89.7266 171.835 89.7266C169.889 89.7266 168.136 88.6071 168.136 85.2975C165.898 88.9478 162.637 90.5053 159.132 90.5053ZM187.12 90.5053C181.328 90.5053 178.846 87.9257 178.846 84.9081C178.846 80.9657 182.934 78.7755 187.656 77.1207C191.793 75.6605 195.784 74.5411 195.784 71.1341C195.784 67.1917 193.253 65.4395 189.797 65.3909C186.39 65.4395 183.129 67.1917 181.62 71.5235H181.231V67.2404C184.054 65.1475 188.191 64.6121 189.797 64.6121C195.784 64.6121 200.164 67.7271 200.164 75.0765V83.8373C200.164 88.4124 201.089 88.9965 204.058 88.3151V88.7045C202.452 89.3372 200.846 89.7266 199.483 89.7266C197.731 89.7266 195.784 88.5098 195.784 86.0762C193.934 88.5584 191.209 90.5053 187.12 90.5053ZM183.226 84.6647C183.226 87.585 184.589 89.7266 187.461 89.7266C192.279 89.7266 195.151 86.4169 195.784 82.6692V74.5411C194.08 75.9039 190.332 77.072 188.094 77.8994C184.249 79.3109 183.226 82.0365 183.226 84.6647ZM219.272 90.5053C212.75 90.5053 206.034 85.3461 206.034 77.5587C206.034 69.7713 212.215 64.6121 218.737 64.6121C222.144 64.6121 225.843 66.0236 228.228 69.82V59.1123C228.228 55.6566 226.962 54.6345 224.334 54.6345V54.2451L231.829 53.223C232.365 53.1257 232.608 53.4177 232.608 53.9044V84.5674C232.608 88.0231 234.117 89.3372 236.502 89.3372V89.7266H232.121C230.029 89.7266 228.228 88.6071 228.228 86.0762C226.378 88.5584 223.653 90.5053 219.272 90.5053ZM210.414 77.5587C210.463 86.2222 214.94 89.7266 219.759 89.7266C224.285 89.7266 227.692 85.9302 228.228 82.6692V73.227C227.838 70.0633 224.139 65.3909 219.321 65.3909C214.989 65.3909 210.365 68.8952 210.414 77.5587ZM238.925 89.3372C241.31 89.3372 242.818 88.0231 242.818 84.5674V70.5014C242.818 67.0457 241.553 66.0236 238.925 66.0236V65.6342L246.42 64.6121C246.956 64.5148 247.199 64.8068 247.199 65.2935V69.82C249.389 65.8289 253.234 64.6121 256.787 64.6121C259.367 64.6121 261.703 65.1962 262.774 65.8289V70.112H262.384C260.924 66.8997 258.15 65.3909 255.57 65.3909C251.725 65.3909 247.637 68.2625 247.199 73.227V84.5674C247.199 88.0231 248.708 89.3372 251.093 89.3372V89.7266H238.925V89.3372ZM273.008 90.5053C267.216 90.5053 264.734 87.9257 264.734 84.9081C264.734 80.9657 268.822 78.7755 273.543 77.1207C277.681 75.6605 281.672 74.5411 281.672 71.1341C281.672 67.1917 279.141 65.4395 275.685 65.3909C272.278 65.4395 269.017 67.1917 267.508 71.5235H267.119V67.2404C269.942 65.1475 274.079 64.6121 275.685 64.6121C281.672 64.6121 286.052 67.7271 286.052 75.0765V83.8373C286.052 88.4124 286.977 88.9965 289.946 88.3151V88.7045C288.34 89.3372 286.733 89.7266 285.371 89.7266C283.618 89.7266 281.672 88.5098 281.672 86.0762C279.822 88.5584 277.096 90.5053 273.008 90.5053ZM269.114 84.6647C269.114 87.585 270.477 89.7266 273.349 89.7266C278.167 89.7266 281.039 86.4169 281.672 82.6692V74.5411C279.968 75.9039 276.22 77.072 273.981 77.8994C270.136 79.3109 269.114 82.0365 269.114 84.6647ZM291.921 89.3372C294.306 89.3372 295.815 88.0231 295.815 84.5674V70.5014C295.815 67.0457 294.55 66.0236 291.921 66.0236V65.6342L299.417 64.6121C299.952 64.5148 300.196 64.8068 300.196 65.2935V69.82C302.434 66.1696 305.695 64.6121 309.2 64.6121C313.775 64.6121 317.961 67.7758 317.961 73.227V84.5674C317.961 88.0231 319.469 89.3372 321.854 89.3372V89.7266H309.686V89.3372C312.071 89.3372 313.58 88.0231 313.58 84.5674V73.227C313.58 67.6298 311.001 65.3909 308.129 65.3909C304.868 65.3909 301.023 68.4572 300.196 73.227V84.5674C300.196 88.0231 301.704 89.3372 304.089 89.3372V89.7266H291.921V89.3372ZM336.944 90.5053C331.883 90.5053 328.184 87.8284 328.184 80.041V65.3909H325.166V64.6121H328.184V63.2493C328.184 59.7937 326.918 58.7716 324.29 58.7716V58.3822L331.785 57.3601C332.321 57.2628 332.564 57.5548 332.564 58.0415V64.6121H337.334V65.3909H332.564V80.5763C332.564 87.3903 334.462 89.7266 337.772 89.7266C339.183 89.7266 340.643 89.0938 342.006 87.7797L342.396 88.2177C340.789 89.7752 338.94 90.5053 336.944 90.5053Z" fill="#F2EADD"/>
<defs>
<linearGradient id="paint0_linear_31_680" x1="13.403" y1="54.3856" x2="89.0174" y2="24.8334" gradientUnits="userSpaceOnUse">
<stop stop-color="#CBB88F"/>
<stop offset="1" stop-color="#F2EADD"/>
</linearGradient>
</defs>
</svg>
